<svg width="220" height="39" viewBox="0 0 220 39" fill="none" xmlns="http://www.w3.org/2000/svg">
<path d="M28.32 34.0481C28.176 34.0481 28.016 33.9761 27.84 33.8321C27.664 33.6881 27.568 33.4961 27.552 33.2561C27.552 32.9361 27.76 32.0001 28.176 30.4481C29.152 26.8161 30.248 23.2321 31.464 19.6961L31.728 18.9281C31.728 18.9121 31.112 18.8961 29.88 18.8801L27.024 18.8561C23.872 18.9201 20.456 19.1841 16.776 19.6481C16.024 19.7441 15.608 19.8241 15.528 19.8881C15.464 19.9521 15.416 20.0241 15.384 20.1041C15.368 20.1841 15.312 20.3601 15.216 20.6321C13.488 25.1441 12.2 28.6561 11.352 31.1681C10.856 32.6721 10.56 33.4801 10.464 33.5921C10.4 33.6241 10.336 33.6401 10.272 33.6401C10.096 33.6401 9.91996 33.5361 9.74396 33.3281C9.63196 33.2161 9.55996 33.1201 9.52796 33.0401C9.49596 32.9761 9.47996 32.8881 9.47996 32.7761C9.47996 32.2161 10.104 30.0801 11.352 26.3681C12.088 24.2081 12.696 22.5201 13.176 21.3041C13.416 20.7601 13.536 20.4161 13.536 20.2721C13.536 20.1921 13.488 20.1521 13.392 20.1521L12.864 20.2481C10.256 20.6961 8.47996 21.1681 7.53596 21.6641C7.26396 21.8241 7.00796 21.9041 6.76796 21.9041C6.30396 21.9041 6.00796 21.6161 5.87996 21.0401V20.9921C5.87996 20.1441 8.37596 19.3121 13.368 18.4961L13.608 18.4721C13.832 18.4561 14 18.4081 14.112 18.3281C14.24 18.2481 14.376 18.0481 14.52 17.7281C14.664 17.3921 14.88 16.8561 15.168 16.1201C15.648 14.8401 16.616 12.3121 18.072 8.53612L19.656 4.45612L19.632 4.43212L17.136 7.48012L16.44 8.32012C15.4 9.55212 14.864 10.1841 14.832 10.2161C14.8 10.2321 14.752 10.2721 14.688 10.3361C13.28 11.9681 11.968 13.3841 10.752 14.5841C6.35196 19.0001 3.37596 21.2081 1.82396 21.2081C1.27996 21.2081 0.855964 20.9761 0.551964 20.5121C0.375964 20.2401 0.287964 19.9841 0.287964 19.7441C0.287964 19.5361 0.351964 19.3681 0.479964 19.2401C0.543964 19.1921 0.623964 19.1681 0.719964 19.1681C0.831964 19.1681 0.951964 19.2081 1.07996 19.2881C1.20796 19.3521 1.29596 19.4401 1.34396 19.5521C1.40796 19.6641 1.48796 19.7201 1.58396 19.7201C1.69596 19.7201 1.87196 19.6481 2.11196 19.5041C4.60796 18.1921 8.12796 15.0321 12.672 10.0241C13.104 9.56012 13.584 9.02412 14.112 8.41612C15.392 6.92812 16.344 5.79212 16.968 5.00812L18.12 3.59212C19.528 1.83212 20.384 0.824123 20.688 0.568125C20.88 0.408125 21.048 0.328125 21.192 0.328125C21.544 0.328125 21.824 0.496124 22.032 0.832123C22.192 1.07212 22.272 1.34412 22.272 1.64812C22.272 2.20812 20.952 5.85612 18.312 12.5921C17.992 13.3921 17.56 14.4961 17.016 15.9041C16.488 17.3121 16.224 18.0321 16.224 18.0641H16.248C16.344 18.0641 16.592 18.0401 16.992 17.9921L17.544 17.9441C21.032 17.5281 24.368 17.3201 27.552 17.3201C29.28 17.3201 30.8 17.3681 32.112 17.4641C32.176 17.4641 32.224 17.4401 32.256 17.3921C32.288 17.3441 32.328 17.2401 32.376 17.0801C32.888 15.7041 33.48 14.2001 34.152 12.5681C34.824 10.9201 35.448 9.44812 36.024 8.15212C36.6 6.84012 37 6.00012 37.224 5.63212C37.384 5.39212 37.56 5.27212 37.752 5.27212C37.96 5.27212 38.168 5.39212 38.376 5.63212C38.6 5.87212 38.712 6.10412 38.712 6.32812C38.712 6.52012 38.624 6.73612 38.448 6.97612C38.176 7.39212 37.656 8.49612 36.888 10.2881C36.008 12.3201 35.184 14.3441 34.416 16.3601C34.144 16.9841 34.008 17.3761 34.008 17.5361C34.008 17.6161 34.04 17.6641 34.104 17.6801C34.168 17.6961 34.256 17.7121 34.368 17.7281C34.704 17.7441 35.224 17.7921 35.928 17.8721C37.096 18.0161 37.8 18.1361 38.04 18.2321C38.216 18.3121 38.352 18.4241 38.448 18.5681C38.56 18.7121 38.616 18.8561 38.616 19.0001C38.616 19.1121 38.584 19.2001 38.52 19.2641C38.456 19.3281 38.4 19.3841 38.352 19.4321C35.728 19.1601 34.208 19.0241 33.792 19.0241L33.408 19.0481L33 20.2001C31.096 25.5281 29.72 29.8241 28.872 33.0881C28.792 33.3921 28.712 33.6561 28.632 33.8801C28.552 33.9921 28.448 34.0481 28.32 34.0481Z" fill="white"/>
<path d="M39.8567 26.6801C39.5687 26.6801 39.3126 26.6481 39.0886 26.5841C38.5126 26.3921 38.0887 26.0961 37.8167 25.6961C37.5287 25.2801 37.3847 24.7841 37.3847 24.2081C37.3847 23.4881 37.6167 22.6881 38.0807 21.8081C38.5287 20.9281 39.1927 20.0401 40.0727 19.1441C41.2247 18.0241 42.2087 17.4641 43.0247 17.4641C43.5367 17.4641 43.9447 17.6961 44.2487 18.1601C44.3767 18.3681 44.4407 18.5841 44.4407 18.8081C44.4407 19.4801 44.0487 20.1521 43.2647 20.8241C42.4807 21.4801 41.6887 21.8081 40.8887 21.8081C40.6647 21.8081 40.4567 21.7841 40.2647 21.7361C40.2007 21.7041 40.1447 21.6881 40.0967 21.6881C40.0327 21.6881 39.9687 21.7281 39.9047 21.8081C39.8567 21.8881 39.7606 22.0481 39.6166 22.2881C39.0566 23.2321 38.7766 23.9841 38.7766 24.5441C38.7766 24.9441 38.9287 25.1681 39.2327 25.2161H39.4727C40.4967 25.2161 41.8167 24.7761 43.4327 23.8961C45.0487 23.0001 46.4727 21.9281 47.7047 20.6801C47.9607 20.4081 48.1527 20.2161 48.2807 20.1041C48.4247 19.9761 48.5447 19.9121 48.6407 19.9121C48.7367 19.9121 48.8486 19.9601 48.9767 20.0561C49.2327 20.2001 49.3607 20.3841 49.3607 20.6081C49.3607 21.0081 48.8327 21.7041 47.7767 22.6961C46.6087 23.8321 45.2567 24.7841 43.7207 25.5521C42.1847 26.3041 40.8967 26.6801 39.8567 26.6801ZM41.3207 20.2001C41.3847 20.2001 41.6487 20.0241 42.1127 19.6721C42.4327 19.4161 42.5927 19.2561 42.5927 19.1921L42.5447 19.2161C42.3847 19.3121 42.2087 19.4241 42.0167 19.5521C41.8407 19.6801 41.6807 19.8081 41.5367 19.9361C41.3927 20.0481 41.3126 20.1281 41.2966 20.1761C41.2966 20.1921 41.3047 20.2001 41.3207 20.2001Z" fill="white"/>
<path d="M48.2332 26.9681C48.0732 26.9681 47.9292 26.9441 47.8012 26.8961C47.0012 26.6561 46.6012 26.0401 46.6012 25.0481C46.6012 23.9121 47.1212 22.3201 48.1612 20.2721C49.7132 17.1681 51.0332 15.6161 52.1212 15.6161C52.4572 15.6161 52.7852 15.7681 53.1052 16.0721C53.4732 16.4401 53.6572 17.0401 53.6572 17.8721C53.6572 18.2561 53.6012 18.6001 53.4892 18.9041C53.3772 19.2081 53.1852 19.3601 52.9132 19.3601C52.4172 19.2481 52.1692 18.9041 52.1692 18.3281C52.1692 18.1841 52.1852 18.0321 52.2172 17.8721C52.2492 17.7121 52.2652 17.5841 52.2652 17.4881C52.2652 17.3601 52.2332 17.2961 52.1692 17.2961C51.9772 17.2961 51.6092 17.7041 51.0652 18.5201C50.5372 19.3361 49.9932 20.2801 49.4332 21.3521C48.8892 22.4241 48.4892 23.3921 48.2332 24.2561C48.0892 24.7361 48.0172 25.0561 48.0172 25.2161C48.0172 25.3281 48.0492 25.3841 48.1132 25.3841C48.2412 25.3841 48.4252 25.3281 48.6652 25.2161C49.5612 24.8161 50.6012 24.1921 51.7852 23.3441C52.9852 22.4801 54.0812 21.5681 55.0732 20.6081C55.4412 20.2241 55.7212 20.0321 55.9132 20.0321C56.0252 20.0321 56.1452 20.0801 56.2732 20.1761C56.5132 20.3361 56.6332 20.5201 56.6332 20.7281C56.6332 20.9201 56.5132 21.1521 56.2732 21.4241C54.9772 22.9601 53.5372 24.2721 51.9532 25.3601C50.3692 26.4321 49.1292 26.9681 48.2332 26.9681Z" fill="white"/>
<path d="M55.8343 29.9681C55.6903 29.9681 55.5623 29.9441 55.4503 29.8961C54.5383 29.6081 54.0823 28.7041 54.0823 27.1841C54.0823 25.2481 54.8663 21.9761 56.4343 17.3681C56.8663 16.1361 57.2023 15.2161 57.4423 14.6081C57.5383 14.4161 57.5863 14.2801 57.5863 14.2001C57.5863 14.0881 57.4663 14.0321 57.2263 14.0321L56.6023 14.0801C55.9463 14.1121 55.4103 14.1281 54.9943 14.1281C54.6103 14.1281 54.3543 14.0961 54.2263 14.0321C54.0823 13.9681 53.9543 13.8481 53.8423 13.6721C53.7143 13.4961 53.6503 13.3361 53.6503 13.1921C53.6503 12.7921 54.3863 12.5841 55.8583 12.5681C56.7383 12.5361 57.5623 12.4881 58.3303 12.4241C59.7223 9.14412 60.6823 7.50412 61.2103 7.50412C61.4663 7.52012 61.6663 7.60812 61.8103 7.76812C61.9543 7.92812 62.0263 8.12012 62.0263 8.34412C62.0263 8.56812 61.9543 8.80812 61.8103 9.06412C61.7143 9.20812 61.5383 9.52012 61.2823 10.0001C61.0423 10.4641 60.8023 10.9361 60.5623 11.4161C60.3223 11.8801 60.1783 12.1841 60.1303 12.3281C60.1303 12.3601 60.1383 12.3841 60.1543 12.4001C60.1703 12.4001 60.2023 12.4081 60.2503 12.4241C60.2983 12.4241 60.3703 12.4241 60.4663 12.4241C60.5783 12.4241 60.8663 12.4241 61.3303 12.4241L64.1143 12.4001L64.7623 12.4241L65.0023 12.6641C65.1783 12.8561 65.2663 13.0481 65.2663 13.2401C65.2663 13.4001 65.2103 13.5041 65.0983 13.5521C64.9863 13.6001 64.7143 13.6401 64.2823 13.6721C63.4023 13.7361 61.7783 13.8321 59.4103 13.9601L59.1943 14.5121C58.1383 17.1361 57.2503 19.7601 56.5303 22.3841C55.8103 24.9921 55.4503 26.7841 55.4503 27.7601C55.4503 28.1761 55.5223 28.3921 55.6663 28.4081L55.7383 28.3841C56.2183 28.1921 56.8983 27.6481 57.7783 26.7521C58.6743 25.8561 59.5783 24.8401 60.4903 23.7041C61.4023 22.5521 62.1383 21.4881 62.6983 20.5121C62.9703 19.9841 63.2183 19.7201 63.4423 19.7201C63.5543 19.7201 63.6743 19.7761 63.8023 19.8881C64.0423 20.0321 64.1623 20.2081 64.1623 20.4161C64.1623 20.6721 63.9863 21.0801 63.6343 21.6401C62.2423 24.0561 60.8023 26.0481 59.3143 27.6161C57.8423 29.1841 56.6823 29.9681 55.8343 29.9681Z" fill="white"/>
<path d="M64.076 25.1681C63.82 25.1681 63.596 25.1201 63.404 25.0241C62.764 24.5921 62.444 23.9441 62.444 23.0801C62.444 22.3761 62.668 21.6081 63.116 20.7761L63.404 20.2481L63.236 20.0801C62.996 19.8081 62.876 19.5361 62.876 19.2641C62.876 18.9281 63.036 18.6321 63.356 18.3761C64.012 17.9921 64.748 17.8001 65.564 17.8001C66.3 17.8001 66.996 17.9441 67.652 18.2321C68.308 18.5041 68.756 18.8961 68.996 19.4081L69.092 19.6721L69.5 19.6481C70.14 19.6481 71.092 19.6161 72.356 19.5521H72.524C73.164 19.5521 73.484 19.7921 73.484 20.2721C73.484 20.4321 73.412 20.5441 73.268 20.6081C72.996 20.7361 71.98 20.8561 70.22 20.9681C69.532 21.0001 69.172 21.0321 69.14 21.0641C69.124 21.0801 69.092 21.1361 69.044 21.2321C68.996 21.3281 68.956 21.4161 68.924 21.4961C68.444 22.4881 67.708 23.3521 66.716 24.0881C65.724 24.8081 64.844 25.1681 64.076 25.1681ZM67.58 19.6241C67.676 19.6241 67.724 19.6161 67.724 19.6001C67.66 19.5521 67.548 19.4881 67.388 19.4081L66.596 19.1921L66.572 19.5761L67.58 19.6241ZM63.836 23.8241C63.932 23.8241 64.116 23.7681 64.388 23.6561C64.932 23.4321 65.468 23.1041 65.996 22.6721C66.604 22.1761 67.1 21.6401 67.484 21.0641C66.62 20.9841 65.748 20.9121 64.868 20.8481L64.724 20.9921C64.436 21.3121 64.188 21.7281 63.98 22.2401C63.772 22.7361 63.668 23.1521 63.668 23.4881V23.6561C63.668 23.7681 63.724 23.8241 63.836 23.8241Z" fill="white"/>
<path d="M75.0071 27.8081C74.8791 27.8081 74.7671 27.7921 74.6711 27.7601C73.9511 27.5521 73.5911 26.9041 73.5911 25.8161C73.5911 25.2881 73.6711 24.6481 73.8311 23.8961C73.9911 23.1441 74.0711 22.5681 74.0711 22.1681C74.0711 21.8481 73.9991 21.5601 73.8551 21.3041C73.7111 21.0481 73.4711 20.7201 73.1351 20.3201C72.4311 19.3921 72.0791 18.3601 72.0791 17.2241C72.0791 15.8321 72.6071 14.4001 73.6631 12.9281C74.4471 11.9041 75.2391 11.3921 76.0391 11.3921C76.4871 11.3921 76.8551 11.5761 77.1431 11.9441C77.4471 12.2961 77.5991 12.8001 77.5991 13.4561C77.5991 14.5281 77.1191 15.9601 76.1591 17.7521C75.6151 18.7601 75.1271 19.4641 74.6951 19.8641L74.4311 20.0801C75.2151 20.7041 75.6071 21.7281 75.6071 23.1521C75.6071 23.7761 75.5671 24.3601 75.4871 24.9041C75.4391 25.2721 75.4151 25.5761 75.4151 25.8161C75.4151 26.0881 75.4711 26.2321 75.5831 26.2481C75.6631 26.2481 75.7671 26.2001 75.8951 26.1041C76.8871 25.3041 78.5431 23.5601 80.8631 20.8721C81.3591 20.2481 81.7351 19.9361 81.9911 19.9361C82.2311 19.9361 82.3511 20.0801 82.3511 20.3681C82.3511 20.7521 82.0711 21.3361 81.5111 22.1201C78.4071 25.9121 76.2391 27.8081 75.0071 27.8081ZM73.6151 18.6161C73.6791 18.6161 73.7751 18.5361 73.9031 18.3761C74.4791 17.5601 75.0231 16.5841 75.5351 15.4481C76.0471 14.2961 76.3031 13.5041 76.3031 13.0721C76.3031 12.9281 76.2631 12.8561 76.1831 12.8561C75.9111 12.8561 75.5751 13.1121 75.1751 13.6241C74.7751 14.1361 74.4151 14.7361 74.0951 15.4241C73.6311 16.3841 73.3991 17.2641 73.3991 18.0641C73.3991 18.4161 73.4711 18.6001 73.6151 18.6161Z" fill="white"/>
<path d="M93.8998 36.0161C93.7878 36.0161 93.6518 35.9761 93.4918 35.8961C93.3318 35.8161 93.2038 35.6881 93.1078 35.5121C93.0278 35.3521 92.9878 35.1121 92.9878 34.7921C92.9878 33.4641 94.1398 29.3681 96.4438 22.5041C97.3238 19.8321 98.0038 17.8561 98.4838 16.5761C100.324 11.4561 101.524 8.39212 102.084 7.38412C102.404 6.84012 102.66 6.56812 102.852 6.56812H102.9C103.396 6.68012 103.644 6.95212 103.644 7.38412C103.644 7.60812 103.572 7.86412 103.428 8.15212C102.82 9.44812 101.82 11.9841 100.428 15.7601C99.0518 19.5361 97.8118 23.1521 96.7078 26.6081C96.3718 27.6801 96.2038 28.2561 96.2038 28.3361L96.3958 27.9521C97.7718 24.9441 99.2118 21.9441 100.716 18.9521C102.236 15.9601 103.548 13.4961 104.652 11.5601C106.652 8.02412 108.068 6.25612 108.9 6.25612C109.044 6.25612 109.18 6.31212 109.308 6.42412C109.452 6.52012 109.564 6.62412 109.644 6.73612C109.74 6.83212 109.788 6.97612 109.788 7.16812C109.788 7.58412 109.588 8.38412 109.188 9.56812C108.404 12.1761 107.78 14.3201 107.316 16.0001C105.86 21.1521 105.132 23.8321 105.132 24.0401L106.092 22.7201C106.412 22.2721 106.828 21.7041 107.34 21.0161C107.852 20.3281 108.316 19.7041 108.732 19.1441C109.164 18.5681 109.396 18.2641 109.428 18.2321C109.46 18.2001 109.516 18.1281 109.596 18.0161C109.676 17.9041 109.78 17.7681 109.908 17.6081C113.956 12.5041 118.052 8.49612 122.196 5.58412C126.58 2.68812 129.924 1.24012 132.228 1.24012C134.596 1.24012 135.796 2.71212 135.828 5.65612C135.828 7.43212 135.356 9.74412 134.412 12.5921C132.284 18.9761 129.1 25.3601 124.86 31.7441C124.54 32.2241 124.308 32.5521 124.164 32.7281C124.036 32.9041 123.916 32.9921 123.804 32.9921L123.636 32.9441C123.268 32.8481 123.084 32.6481 123.084 32.3441C123.084 32.0401 123.284 31.6001 123.684 31.0241C127.732 24.8001 130.956 18.0081 133.356 10.6481C134.06 8.32812 134.412 6.46412 134.412 5.05612C134.412 4.19212 134.276 3.58412 134.004 3.23212C133.7 2.91212 133.228 2.75212 132.588 2.75212C130.828 2.75212 128.14 3.84812 124.524 6.04012C118.7 9.59212 112.58 16.0561 106.164 25.4321C105.636 26.2001 105.228 26.7841 104.94 27.1841C104.652 27.5841 104.436 27.8561 104.292 28.0001C104.148 28.1441 104.02 28.2161 103.908 28.2161C103.828 28.2161 103.748 28.1921 103.668 28.1441H103.62C103.156 27.9681 102.924 27.5921 102.924 27.0161C102.924 26.2161 104.284 21.0401 107.004 11.4881C107.196 10.8641 107.292 10.4961 107.292 10.3841L107.268 10.3601C107.236 10.3601 107.124 10.5281 106.932 10.8641C105.012 13.8721 102.428 18.8321 99.1798 25.7441C98.4438 27.2641 97.9318 28.3601 97.6438 29.0321C97.2758 29.7681 96.6518 31.0961 95.7718 33.0161C95.1638 34.2641 94.7318 35.1281 94.4758 35.6081C94.3158 35.8801 94.1238 36.0161 93.8998 36.0161Z" fill="white"/>
<path d="M142.197 26.4161C141.557 26.4161 141.053 26.1361 140.685 25.5761C140.365 25.0961 140.205 24.5121 140.205 23.8241L140.229 23.3681C140.229 23.2561 140.205 23.2001 140.157 23.2001C140.093 23.2001 139.917 23.3441 139.629 23.6321C138.669 24.5601 137.861 25.0241 137.205 25.0241C136.853 25.0241 136.541 24.8881 136.269 24.6161C135.981 24.3281 135.837 23.9361 135.837 23.4401C135.837 22.6401 136.117 21.7361 136.677 20.7281C137.221 19.7201 137.877 18.8481 138.645 18.1121C139.429 17.3601 140.157 16.9841 140.829 16.9841C141.021 16.9841 141.213 17.0241 141.405 17.1041C141.597 17.1841 141.749 17.3121 141.861 17.4881C141.973 17.6481 142.029 17.8001 142.029 17.9441C142.029 18.1841 141.869 18.3281 141.549 18.3761H141.333C140.917 18.3761 140.381 18.6881 139.725 19.3121C139.069 19.9201 138.477 20.6241 137.949 21.4241C137.437 22.2241 137.181 22.8881 137.181 23.4161C137.181 23.4801 137.205 23.5121 137.253 23.5121C137.461 23.5121 137.949 23.1281 138.717 22.3601C139.485 21.5921 140.221 20.7521 140.925 19.8401C141.325 19.3601 141.669 19.1201 141.957 19.1201C142.325 19.1201 142.533 19.4081 142.581 19.9841C142.581 20.2561 142.517 20.5681 142.389 20.9201C141.893 22.2481 141.645 23.3361 141.645 24.1841C141.645 24.3441 141.677 24.6081 141.741 24.9761L142.077 24.9041C142.637 24.7601 143.397 24.2961 144.357 23.5121C145.317 22.7281 146.165 21.8801 146.901 20.9681C147.141 20.6641 147.333 20.4321 147.477 20.2721C147.621 20.0961 147.725 20.0001 147.789 19.9841C147.853 19.9681 147.933 19.9601 148.029 19.9601C148.413 19.9601 148.605 20.1521 148.605 20.5361C148.605 20.7921 148.485 21.1041 148.245 21.4721C147.157 22.9921 146.061 24.2001 144.957 25.0961C143.869 25.9761 142.949 26.4161 142.197 26.4161Z" fill="white"/>
<path d="M149.96 27.8081C149.832 27.8081 149.72 27.7921 149.624 27.7601C148.904 27.5521 148.544 26.9041 148.544 25.8161C148.544 25.2881 148.624 24.6481 148.784 23.8961C148.944 23.1441 149.024 22.5681 149.024 22.1681C149.024 21.8481 148.952 21.5601 148.808 21.3041C148.664 21.0481 148.424 20.7201 148.088 20.3201C147.384 19.3921 147.032 18.3601 147.032 17.2241C147.032 15.8321 147.56 14.4001 148.616 12.9281C149.4 11.9041 150.192 11.3921 150.992 11.3921C151.44 11.3921 151.808 11.5761 152.096 11.9441C152.4 12.2961 152.552 12.8001 152.552 13.4561C152.552 14.5281 152.072 15.9601 151.112 17.7521C150.568 18.7601 150.08 19.4641 149.648 19.8641L149.384 20.0801C150.168 20.7041 150.56 21.7281 150.56 23.1521C150.56 23.7761 150.52 24.3601 150.44 24.9041C150.392 25.2721 150.368 25.5761 150.368 25.8161C150.368 26.0881 150.424 26.2321 150.536 26.2481C150.616 26.2481 150.72 26.2001 150.848 26.1041C151.84 25.3041 153.496 23.5601 155.816 20.8721C156.312 20.2481 156.688 19.9361 156.944 19.9361C157.184 19.9361 157.304 20.0801 157.304 20.3681C157.304 20.7521 157.024 21.3361 156.464 22.1201C153.36 25.9121 151.192 27.8081 149.96 27.8081ZM148.568 18.6161C148.632 18.6161 148.728 18.5361 148.856 18.3761C149.432 17.5601 149.976 16.5841 150.488 15.4481C151 14.2961 151.256 13.5041 151.256 13.0721C151.256 12.9281 151.216 12.8561 151.136 12.8561C150.864 12.8561 150.528 13.1121 150.128 13.6241C149.728 14.1361 149.368 14.7361 149.048 15.4241C148.584 16.3841 148.352 17.2641 148.352 18.0641C148.352 18.4161 148.424 18.6001 148.568 18.6161Z" fill="white"/>
<path d="M161.626 26.4161C160.986 26.4161 160.482 26.1361 160.114 25.5761C159.794 25.0961 159.634 24.5121 159.634 23.8241L159.658 23.3681C159.658 23.2561 159.634 23.2001 159.586 23.2001C159.522 23.2001 159.346 23.3441 159.058 23.6321C158.098 24.5601 157.29 25.0241 156.634 25.0241C156.282 25.0241 155.97 24.8881 155.698 24.6161C155.41 24.3281 155.266 23.9361 155.266 23.4401C155.266 22.6401 155.546 21.7361 156.106 20.7281C156.65 19.7201 157.306 18.8481 158.074 18.1121C158.858 17.3601 159.586 16.9841 160.258 16.9841C160.45 16.9841 160.642 17.0241 160.834 17.1041C161.026 17.1841 161.178 17.3121 161.29 17.4881C161.402 17.6481 161.458 17.8001 161.458 17.9441C161.458 18.1841 161.298 18.3281 160.978 18.3761H160.762C160.346 18.3761 159.81 18.6881 159.154 19.3121C158.498 19.9201 157.906 20.6241 157.378 21.4241C156.866 22.2241 156.61 22.8881 156.61 23.4161C156.61 23.4801 156.634 23.5121 156.682 23.5121C156.89 23.5121 157.378 23.1281 158.146 22.3601C158.914 21.5921 159.65 20.7521 160.354 19.8401C160.754 19.3601 161.098 19.1201 161.386 19.1201C161.754 19.1201 161.962 19.4081 162.01 19.9841C162.01 20.2561 161.946 20.5681 161.818 20.9201C161.322 22.2481 161.074 23.3361 161.074 24.1841C161.074 24.3441 161.106 24.6081 161.17 24.9761L161.506 24.9041C162.066 24.7601 162.826 24.2961 163.786 23.5121C164.746 22.7281 165.594 21.8801 166.33 20.9681C166.57 20.6641 166.762 20.4321 166.906 20.2721C167.05 20.0961 167.154 20.0001 167.218 19.9841C167.282 19.9681 167.362 19.9601 167.458 19.9601C167.842 19.9601 168.034 20.1521 168.034 20.5361C168.034 20.7921 167.914 21.1041 167.674 21.4721C166.586 22.9921 165.49 24.2001 164.386 25.0961C163.298 25.9761 162.378 26.4161 161.626 26.4161Z" fill="white"/>
<path d="M173.278 29.2241C173.118 29.2241 172.974 29.2001 172.846 29.1521C171.47 28.6721 170.782 27.4721 170.782 25.5521C170.782 25.2161 170.806 24.8641 170.854 24.4961L170.902 24.0881C170.902 24.0081 170.886 23.9681 170.854 23.9681C170.806 23.9841 170.678 24.0801 170.47 24.2561C169.014 25.4241 167.782 26.0081 166.774 26.0081C165.814 26.0081 165.302 25.4641 165.238 24.3761C165.238 23.6241 165.558 22.6481 166.198 21.4481C166.95 20.1041 167.694 19.0801 168.43 18.3761C169.166 17.6561 169.838 17.2961 170.446 17.2961C171.134 17.2961 171.678 17.8401 172.078 18.9281C172.798 16.6561 173.414 14.8641 173.926 13.5521C174.486 12.1121 174.982 10.9601 175.414 10.0961L175.822 9.25612C176.398 8.15212 176.974 7.60012 177.55 7.60012C177.87 7.60012 178.19 7.76812 178.51 8.10412C178.894 8.55212 179.086 9.17612 179.086 9.97612C179.086 11.3201 178.606 13.0001 177.646 15.0161C176.702 17.0161 175.398 19.0241 173.734 21.0401C173.43 21.3761 173.214 21.6401 173.086 21.8321C172.958 22.0081 172.862 22.2161 172.798 22.4561C172.734 22.6801 172.662 23.0081 172.582 23.4401C172.342 24.6881 172.222 25.6241 172.222 26.2481C172.222 27.2081 172.438 27.7041 172.87 27.7361C173.126 27.7041 173.478 27.5601 173.926 27.3041C174.39 27.0481 174.774 26.7761 175.078 26.4881L175.366 26.2481C175.942 25.7681 176.75 24.9921 177.79 23.9201C178.83 22.8481 179.75 21.8481 180.55 20.9201C180.87 20.5361 181.11 20.2641 181.27 20.1041C181.43 19.9441 181.574 19.8641 181.702 19.8641C181.846 19.8641 181.998 19.9521 182.158 20.1281C182.35 20.2721 182.446 20.4321 182.446 20.6081C182.446 20.8641 182.174 21.3281 181.63 22.0001C179.886 24.2721 178.278 26.0481 176.806 27.3281C175.334 28.5921 174.158 29.2241 173.278 29.2241ZM174.286 17.4161C174.35 17.3521 174.478 17.1521 174.67 16.8161C176.238 14.2721 177.198 12.1121 177.55 10.3361C177.598 10.0961 177.622 9.92812 177.622 9.83212C177.622 9.78412 177.614 9.76012 177.598 9.76012C177.55 9.76012 177.446 9.90412 177.286 10.1921C176.806 11.0721 176.262 12.2321 175.654 13.6721C175.046 15.1121 174.606 16.3121 174.334 17.2721L174.286 17.4161ZM166.654 24.4961L167.23 24.2561C167.822 24.0001 168.502 23.5681 169.27 22.9601C169.862 22.4961 170.382 22.0401 170.83 21.5921C171.278 21.1281 171.542 20.7681 171.622 20.5121C171.67 20.3201 171.694 20.1921 171.694 20.1281C171.694 20.0641 171.654 20.0241 171.574 20.0081C171.43 19.9761 171.286 19.8801 171.142 19.7201C171.014 19.5601 170.918 19.3761 170.854 19.1681C170.806 18.8801 170.734 18.7361 170.638 18.7361C170.558 18.7361 170.446 18.8001 170.302 18.9281C169.886 19.2481 169.406 19.7601 168.862 20.4641C168.334 21.1521 167.854 21.8641 167.422 22.6001C167.006 23.3201 166.758 23.8961 166.678 24.3281L166.654 24.4961Z" fill="white"/>
<path d="M183.378 15.6641L183.258 15.6401C182.938 15.4961 182.778 15.2401 182.778 14.8721C182.778 14.4721 182.954 13.9841 183.306 13.4081C183.434 13.2321 183.578 13.1441 183.738 13.1441C183.93 13.1441 184.106 13.2561 184.266 13.4801C184.426 13.6881 184.506 13.9281 184.506 14.2001C184.506 14.3601 184.466 14.5201 184.386 14.6801C184.242 14.9841 184.074 15.2241 183.882 15.4001C183.706 15.5761 183.538 15.6641 183.378 15.6641ZM181.362 26.2721C181.25 26.2721 181.154 26.2561 181.074 26.2241C180.434 26.0001 180.114 25.4241 180.114 24.4961C180.114 23.6801 180.362 22.5441 180.858 21.0881C181.386 19.3761 181.906 18.5201 182.418 18.5201C182.546 18.5201 182.682 18.5681 182.826 18.6641C183.098 18.8401 183.234 19.0561 183.234 19.3121C183.234 19.5041 183.162 19.7201 183.018 19.9601C182.842 20.2641 182.634 20.7281 182.394 21.3521C182.17 21.9601 181.97 22.5681 181.794 23.1761C181.618 23.7841 181.53 24.1921 181.53 24.4001C181.53 24.4641 181.546 24.4961 181.578 24.4961C181.674 24.4961 182.01 24.2561 182.586 23.7761C183.178 23.2801 183.802 22.7281 184.458 22.1201C185.114 21.4961 185.65 20.9521 186.066 20.4881C186.418 20.0721 186.706 19.8641 186.93 19.8641C187.106 19.8641 187.266 19.9681 187.41 20.1761C187.522 20.3201 187.578 20.4561 187.578 20.5841C187.578 20.7921 187.418 21.0961 187.098 21.4961C186.042 22.8881 184.97 24.0321 183.882 24.9281C182.81 25.8241 181.97 26.2721 181.362 26.2721Z" fill="white"/>
<path d="M191.509 26.4161C190.869 26.4161 190.365 26.1361 189.997 25.5761C189.677 25.0961 189.517 24.5121 189.517 23.8241L189.541 23.3681C189.541 23.2561 189.517 23.2001 189.469 23.2001C189.405 23.2001 189.229 23.3441 188.941 23.6321C187.981 24.5601 187.173 25.0241 186.517 25.0241C186.165 25.0241 185.853 24.8881 185.581 24.6161C185.293 24.3281 185.149 23.9361 185.149 23.4401C185.149 22.6401 185.429 21.7361 185.989 20.7281C186.533 19.7201 187.189 18.8481 187.957 18.1121C188.741 17.3601 189.469 16.9841 190.141 16.9841C190.333 16.9841 190.525 17.0241 190.717 17.1041C190.909 17.1841 191.061 17.3121 191.173 17.4881C191.285 17.6481 191.341 17.8001 191.341 17.9441C191.341 18.1841 191.181 18.3281 190.861 18.3761H190.645C190.229 18.3761 189.693 18.6881 189.037 19.3121C188.381 19.9201 187.789 20.6241 187.261 21.4241C186.749 22.2241 186.493 22.8881 186.493 23.4161C186.493 23.4801 186.517 23.5121 186.565 23.5121C186.773 23.5121 187.261 23.1281 188.029 22.3601C188.797 21.5921 189.533 20.7521 190.237 19.8401C190.637 19.3601 190.981 19.1201 191.269 19.1201C191.637 19.1201 191.845 19.4081 191.893 19.9841C191.893 20.2561 191.829 20.5681 191.701 20.9201C191.205 22.2481 190.957 23.3361 190.957 24.1841C190.957 24.3441 190.989 24.6081 191.053 24.9761L191.389 24.9041C191.949 24.7601 192.709 24.2961 193.669 23.5121C194.629 22.7281 195.477 21.8801 196.213 20.9681C196.453 20.6641 196.645 20.4321 196.789 20.2721C196.933 20.0961 197.037 20.0001 197.101 19.9841C197.165 19.9681 197.245 19.9601 197.341 19.9601C197.725 19.9601 197.917 20.1521 197.917 20.5361C197.917 20.7921 197.797 21.1041 197.557 21.4721C196.469 22.9921 195.373 24.2001 194.269 25.0961C193.181 25.9761 192.261 26.4161 191.509 26.4161Z" fill="white"/>
<path d="M195.097 38.8961C194.953 38.8961 194.817 38.8641 194.689 38.8001C193.953 38.4161 193.585 37.7121 193.585 36.6881C193.585 35.3121 194.177 33.5521 195.361 31.4081C196.545 29.2641 198.145 27.1681 200.161 25.1201C200.417 24.8641 200.633 24.6481 200.809 24.4721C200.985 24.2801 201.073 24.1681 201.073 24.1361C201.089 24.1041 201.113 24.0401 201.145 23.9441C201.177 23.8481 201.217 23.7441 201.265 23.6321C201.313 23.5041 201.353 23.3761 201.385 23.2481L201.217 23.3921C200.337 24.2721 199.529 24.7121 198.793 24.7121C198.281 24.7121 197.809 24.5121 197.377 24.1121C196.849 23.5521 196.585 22.8561 196.585 22.0241C196.585 21.2241 196.777 20.3921 197.161 19.5281C197.561 18.6481 198.065 17.9121 198.673 17.3201C199.297 16.7281 199.945 16.4321 200.617 16.4321C201.177 16.4321 201.713 16.6721 202.225 17.1521C202.513 17.4401 202.673 17.6881 202.705 17.8961C202.705 17.9281 202.713 17.9601 202.729 17.9921C202.761 18.0241 202.889 18.0401 203.113 18.0401C203.817 18.0401 204.169 18.4481 204.169 19.2641C204.169 19.6961 204.089 20.1681 203.929 20.6801C203.785 21.1761 203.649 21.6001 203.521 21.9521C203.393 22.2881 203.329 22.4961 203.329 22.5761L203.353 22.6001C203.401 22.6001 203.713 22.4161 204.289 22.0481C206.753 20.5281 208.265 19.7681 208.825 19.7681C209.001 19.7841 209.169 19.8801 209.329 20.0561C209.489 20.2161 209.569 20.4001 209.569 20.6081C209.569 20.6881 209.545 20.7601 209.497 20.8241C209.465 20.8881 209.273 20.9921 208.921 21.1361C208.057 21.5041 207.049 22.0561 205.897 22.7921C204.761 23.5121 203.729 24.2641 202.801 25.0481C202.689 25.1441 202.593 25.2481 202.513 25.3601C202.433 25.4561 202.329 25.6881 202.201 26.0561C199.289 34.6161 196.921 38.8961 195.097 38.8961ZM195.073 37.2881C195.169 37.2881 195.369 37.0801 195.673 36.6641C196.681 35.3041 197.833 32.9681 199.129 29.6561C199.433 28.9041 199.585 28.4801 199.585 28.3841L199.561 28.3601C199.513 28.3601 199.353 28.5601 199.081 28.9601C196.857 31.8241 195.521 34.3521 195.073 36.5441C195.025 36.8001 195.001 36.9921 195.001 37.1201C195.001 37.2321 195.025 37.2881 195.073 37.2881ZM198.313 23.2481C198.777 23.2481 199.409 22.8081 200.209 21.9281C201.057 21.0001 201.745 20.0001 202.273 18.9281C202.001 18.2561 201.673 17.9201 201.289 17.9201C200.825 17.9201 200.361 18.1841 199.897 18.7121C199.433 19.2241 199.033 19.7921 198.697 20.4161C198.377 21.0241 198.177 21.5121 198.097 21.8801C198.017 22.2321 197.977 22.5201 197.977 22.7441C197.977 23.0801 198.081 23.2481 198.289 23.2481H198.313Z" fill="white"/>
<path d="M213.564 26.4161C212.924 26.4161 212.42 26.1361 212.052 25.5761C211.732 25.0961 211.572 24.5121 211.572 23.8241L211.596 23.3681C211.596 23.2561 211.572 23.2001 211.524 23.2001C211.46 23.2001 211.284 23.3441 210.996 23.6321C210.036 24.5601 209.228 25.0241 208.572 25.0241C208.22 25.0241 207.908 24.8881 207.636 24.6161C207.348 24.3281 207.204 23.9361 207.204 23.4401C207.204 22.6401 207.484 21.7361 208.044 20.7281C208.588 19.7201 209.244 18.8481 210.012 18.1121C210.796 17.3601 211.524 16.9841 212.196 16.9841C212.388 16.9841 212.58 17.0241 212.772 17.1041C212.964 17.1841 213.116 17.3121 213.228 17.4881C213.34 17.6481 213.396 17.8001 213.396 17.9441C213.396 18.1841 213.236 18.3281 212.916 18.3761H212.7C212.284 18.3761 211.748 18.6881 211.092 19.3121C210.436 19.9201 209.844 20.6241 209.316 21.4241C208.804 22.2241 208.548 22.8881 208.548 23.4161C208.548 23.4801 208.572 23.5121 208.62 23.5121C208.828 23.5121 209.316 23.1281 210.084 22.3601C210.852 21.5921 211.588 20.7521 212.292 19.8401C212.692 19.3601 213.036 19.1201 213.324 19.1201C213.692 19.1201 213.9 19.4081 213.948 19.9841C213.948 20.2561 213.884 20.5681 213.756 20.9201C213.26 22.2481 213.012 23.3361 213.012 24.1841C213.012 24.3441 213.044 24.6081 213.108 24.9761L213.444 24.9041C214.004 24.7601 214.764 24.2961 215.724 23.5121C216.684 22.7281 217.532 21.8801 218.268 20.9681C218.508 20.6641 218.7 20.4321 218.844 20.2721C218.988 20.0961 219.092 20.0001 219.156 19.9841C219.22 19.9681 219.3 19.9601 219.396 19.9601C219.78 19.9601 219.972 20.1521 219.972 20.5361C219.972 20.7921 219.852 21.1041 219.612 21.4721C218.524 22.9921 217.428 24.2001 216.324 25.0961C215.236 25.9761 214.316 26.4161 213.564 26.4161Z" fill="white"/>
</svg>
