<svg width="333" height="288" viewBox="0 0 333 288" fill="none" xmlns="http://www.w3.org/2000/svg">
<path fill-rule="evenodd" clip-rule="evenodd" d="M126.108 154.895C117.253 156.081 111.99 158.337 105.784 163.606C100.491 168.101 96.6608 174.151 94.8454 180.887C93.9427 184.238 93.8607 184.937 93.8458 189.429C93.8222 196.503 95.0717 201.599 98.0405 206.536C99.6172 209.158 104.554 214.08 107.054 215.523C113.589 219.294 122.112 220.865 129.902 219.733C135.801 218.876 140.351 217.094 144.954 213.839C147.929 211.734 154.122 205.598 159.711 199.215C173.284 183.716 180.428 175.968 185.488 171.256C190.418 166.664 193.155 165.013 198.511 163.401C201.084 162.625 201.747 162.555 206.816 162.522L212.325 162.486L215.595 159.649C217.393 158.088 218.864 156.664 218.864 156.483C218.864 155.989 209.257 156.424 204.389 157.139C196.048 158.364 190.331 160.285 185.846 163.368C184.417 164.351 174.316 174.731 170.33 179.313C169.625 180.123 169.497 180.165 168.925 179.771C168.579 179.533 164.956 176.164 160.875 172.286C148.053 160.103 147.277 159.466 142.662 157.314C139.102 155.654 136.049 155.004 131.235 154.879C128.928 154.82 126.62 154.827 126.108 154.895ZM204.415 165.138C200.545 165.656 197.341 166.618 193.85 168.309C187.573 171.351 183.177 175.508 169.6 191.245C158.375 204.256 153.91 209.171 150.702 212.044C141.302 220.465 134.699 223.259 125.252 222.815L121.278 222.628L117.789 224.988L114.299 227.348L118.028 227.442C127.256 227.674 138.413 225.433 144.597 222.103C147.645 220.462 148.672 219.523 156.287 211.411C160.15 207.295 163.424 203.967 163.562 204.017C163.7 204.067 167.285 207.42 171.529 211.468C184.274 223.628 186.476 225.381 191.305 227.213C196.038 229.009 197.107 229.185 203.172 229.159C208.236 229.138 209.054 229.058 211.818 228.313C216.412 227.076 219.439 225.83 222.553 223.896C233.315 217.212 239.35 206.604 239.394 194.3C239.425 185.432 236.73 178.107 231.572 173.042C227.642 169.183 222.731 166.619 217.275 165.578C214.1 164.973 207.374 164.742 204.415 165.138ZM136.546 167.017C139.871 168.222 142.589 170.25 147.418 175.124C154.415 182.186 160.781 189.078 160.687 189.487C160.554 190.056 150.893 200.478 145.995 205.335C141.17 210.12 139.545 211.175 135.4 212.219C129.972 213.585 123.44 212.535 118.088 209.437C115.416 207.89 111.026 203.627 109.525 201.121C108.073 198.696 106.777 194.807 106.39 191.711C105.199 182.187 110.239 173.77 120.127 168.765C124.474 166.565 126.843 166 131.08 166.151C133.705 166.246 134.973 166.446 136.546 167.017ZM206.748 171.694C215.555 173.517 222.766 179.833 225.6 188.206C226.327 190.354 226.428 191.138 226.428 194.628C226.428 198.105 226.325 198.91 225.606 201.05C224.36 204.76 222.806 207.109 219.331 210.535C216.676 213.152 215.793 213.811 213.271 215.051C209.43 216.941 206.208 217.746 202.24 217.808C196.806 217.893 192.818 216.06 187.618 211.088C184.774 208.369 172.541 195.556 172.154 194.892C171.971 194.578 173.187 193.067 176.496 189.496C188.17 176.901 190.246 174.942 193.802 173.168C197.419 171.365 202.411 170.796 206.748 171.694Z" fill="url(#paint0_linear_6336_832)"/>
<path fill-rule="evenodd" clip-rule="evenodd" d="M166.62 0L0.342773 288H332.897L166.62 0ZM166.62 9.29032L8.38843 283.355H324.851L166.62 9.29032Z" fill="url(#paint1_linear_6336_832)"/>
<defs>
<linearGradient id="paint0_linear_6336_832" x1="222.016" y1="162.163" x2="131.074" y2="267.596" gradientUnits="userSpaceOnUse">
<stop stop-color="#E55C29"/>
<stop offset="0.35" stop-color="#E58F29"/>
<stop offset="1" stop-color="#E52929"/>
</linearGradient>
<linearGradient id="paint1_linear_6336_832" x1="293.191" y1="28.3796" x2="-38.7594" y2="255.299" gradientUnits="userSpaceOnUse">
<stop stop-color="#E55C29"/>
<stop offset="0.35" stop-color="#E58F29"/>
<stop offset="1" stop-color="#E52929"/>
</linearGradient>
</defs>
</svg>
