<svg width="242" height="77" viewBox="0 0 242 77" fill="none" xmlns="http://www.w3.org/2000/svg">
<path fill-rule="evenodd" clip-rule="evenodd" d="M33.2804 40.9886C30.9372 41.3024 29.5446 41.8993 27.9023 43.2937C26.5016 44.4829 25.4882 46.0841 25.0078 47.8665C24.7689 48.7531 24.7472 48.9383 24.7433 50.1269C24.737 51.9988 25.0676 53.3473 25.8533 54.6538C26.2705 55.3475 27.5769 56.6501 28.2384 57.0319C29.9678 58.0298 32.2229 58.4453 34.2844 58.1458C35.8454 57.9191 37.0495 57.4475 38.2673 56.5861C39.0548 56.0292 40.6934 54.4054 42.1725 52.7163C45.7642 48.6151 47.6545 46.5647 48.9935 45.3178C50.2981 44.1029 51.0224 43.666 52.4397 43.2392C53.1206 43.0341 53.296 43.0156 54.6374 43.0068L56.0951 42.9973L56.9603 42.2465C57.4362 41.8335 57.8255 41.4566 57.8255 41.4088C57.8255 41.278 55.2832 41.3932 53.995 41.5824C51.7878 41.9065 50.275 42.4147 49.0882 43.2307C48.7102 43.4906 46.0372 46.2375 44.9825 47.4499C44.796 47.6644 44.7619 47.6755 44.6107 47.5712C44.5191 47.508 43.5604 46.6167 42.4803 45.5904C39.0874 42.3667 38.8822 42.1979 37.6608 41.6285C36.7189 41.1894 35.911 41.0172 34.6371 40.9843C34.0266 40.9685 33.416 40.9705 33.2804 40.9886ZM54.0019 43.699C52.978 43.836 52.13 44.0905 51.2061 44.5381C49.5451 45.343 48.382 46.4431 44.7894 50.6073C41.8188 54.0505 40.6373 55.3508 39.7885 56.1112C37.301 58.3395 35.5537 59.079 33.0539 58.9613L32.0025 58.9118L31.079 59.5364L30.1557 60.1609L31.1424 60.1858C33.5843 60.2473 36.5365 59.6541 38.173 58.7731C38.9796 58.3388 39.2514 58.0902 41.2663 55.9436C42.2886 54.8544 43.1551 53.974 43.1916 53.9871C43.2281 54.0003 44.1768 54.8876 45.2997 55.9589C48.6724 59.1766 49.2549 59.6404 50.5327 60.1253C51.7852 60.6006 52.0681 60.6469 53.673 60.6402C55.013 60.6346 55.2296 60.6134 55.9608 60.4164C57.1766 60.0889 57.9777 59.7593 58.8017 59.2475C61.6494 57.4786 63.2465 54.6717 63.2579 51.4157C63.2662 49.0691 62.553 47.1307 61.1883 45.7906C60.1482 44.7693 58.8486 44.0908 57.405 43.8154C56.5648 43.6552 54.7849 43.5943 54.0019 43.699ZM36.0427 44.1962C36.9223 44.5152 37.6418 45.0516 38.9194 46.3413C40.771 48.2102 42.4557 50.0339 42.4306 50.1422C42.3956 50.2926 39.8389 53.0506 38.543 54.3359C37.2662 55.6019 36.8362 55.8813 35.7393 56.1574C34.303 56.5189 32.5745 56.2412 31.1583 55.4214C30.4511 55.012 29.2895 53.8839 28.8922 53.2206C28.508 52.5792 28.1652 51.55 28.0627 50.7306C27.7476 48.2105 29.0811 45.9831 31.6979 44.6587C32.8479 44.0766 33.4749 43.927 34.596 43.9672C35.2908 43.9921 35.6263 44.0452 36.0427 44.1962ZM54.6193 45.4338C56.9499 45.9162 58.858 47.5875 59.6078 49.8032C59.8002 50.3715 59.8269 50.5791 59.8269 51.5026C59.8269 52.4228 59.7997 52.6356 59.6095 53.2019C59.2797 54.1837 58.8685 54.8054 57.949 55.7119C57.2465 56.4045 57.0127 56.5787 56.3454 56.907C55.3289 57.4071 54.4763 57.6201 53.4263 57.6366C51.9884 57.659 50.9331 57.174 49.5571 55.8582C48.8046 55.1388 45.5675 51.7482 45.4652 51.5725C45.4168 51.4893 45.7385 51.0895 46.6142 50.1446C49.7031 46.8116 50.2525 46.2933 51.1936 45.8239C52.1507 45.3467 53.4717 45.1962 54.6193 45.4338Z" fill="url(#paint0_linear_8010_400)"/>
<path fill-rule="evenodd" clip-rule="evenodd" d="M44 0L0 76.2102H88L44 0ZM44 2.45839L2.12903 74.981H85.871L44 2.45839Z" fill="url(#paint1_linear_8010_400)"/>
<path d="M205.124 62.0002H199.652L198.068 59.1682H186.74L185.156 62.0002H179.684L189.596 45.2002H195.188L205.124 62.0002ZM188.948 55.2802H195.86L193.052 49.3762L192.98 49.1842H191.828L191.756 49.3762L188.948 55.2802Z" fill="white"/>
<path d="M161.303 45.2002H182.375V49.3762H174.359V62.0002H169.319V49.3762H161.303V45.2002Z" fill="white"/>
<path d="M145.824 62.0002V45.2002H150.864V57.8242H162.528V62.0002H145.824Z" fill="white"/>
<path d="M124.824 62.0002V45.2002H143.04V49.3282H129.864V51.6322H141.912V55.4722H129.864V57.8722H143.184V62.0002H124.824Z" fill="white"/>
<path d="M99.4878 45.2002H114.416C116.648 45.2002 118.52 45.9682 120.056 47.5282C121.616 49.0882 122.384 50.9842 122.384 53.2162V53.9362C122.408 58.7602 118.496 62.0002 114.896 62.0002H99.4878V45.2002ZM117.2 53.8882V53.2642C117.2 50.6722 115.904 49.3762 113.336 49.3762H104.528V57.8242H113.312C115.904 57.8242 117.2 56.5042 117.2 53.8882Z" fill="white"/>
<path d="M229.743 28.5922L235.551 21.2002H241.791L231.855 32.4322V38.0002H226.815V32.4322L216.879 21.2002H223.119L228.927 28.5922L229.023 28.8562H229.647L229.743 28.5922Z" fill="white"/>
<path d="M194.655 21.2002H215.727V25.3762H207.711V38.0002H202.671V25.3762H194.655V21.2002Z" fill="white"/>
<path d="M187.076 38.0002V21.2002H192.116V38.0002H187.076Z" fill="white"/>
<path d="M178.972 31.8562V21.2002H184.012V38.0002H177.604L167.26 26.8162L166.876 26.3842L166.492 26.6242L166.684 27.2962V38.0002H161.644V21.2002H168.052L178.396 32.3842L178.78 32.8162L179.164 32.5762L178.972 31.8562Z" fill="white"/>
<path d="M153.537 38.0002V21.2002H158.577V38.0002H153.537Z" fill="white"/>
<path d="M138.067 38.0002H133.027V21.2002H150.907V25.3762H138.067V27.9922H149.899V32.0002H138.067V38.0002Z" fill="white"/>
<path d="M125.019 31.8562V21.2002H130.059V38.0002H123.651L113.307 26.8162L112.923 26.3842L112.539 26.6242L112.731 27.2962V38.0002H107.691V21.2002H114.099L124.443 32.3842L124.827 32.8162L125.211 32.5762L125.019 31.8562Z" fill="white"/>
<path d="M99.5837 38.0002V21.2002H104.624V38.0002H99.5837Z" fill="white"/>
<defs>
<linearGradient id="paint0_linear_8010_400" x1="58.6595" y1="42.9116" x2="34.5947" y2="70.8113" gradientUnits="userSpaceOnUse">
<stop stop-color="#E55C29"/>
<stop offset="0.35" stop-color="#E58F29"/>
<stop offset="1" stop-color="#E52929"/>
</linearGradient>
<linearGradient id="paint1_linear_8010_400" x1="82.6743" y1="10.0131" x2="-27.5292" y2="75.2547" gradientUnits="userSpaceOnUse">
<stop stop-color="#E55C29"/>
<stop offset="0.35" stop-color="#E58F29"/>
<stop offset="1" stop-color="#E52929"/>
</linearGradient>
</defs>
</svg>
