<svg width="304" height="131" viewBox="0 0 304 131" fill="none" xmlns="http://www.w3.org/2000/svg">
<path d="M304 95.8816C301.75 95.2826 299.496 94.703 297.236 94.1332C293.732 93.2127 287.085 91.7565 283.62 90.9773C267.852 87.6606 251.327 85.0989 235.329 83.1703C227.052 82.1572 218.76 81.2757 210.459 80.516C213.436 77.9591 216.14 75.0808 218.458 71.881C222.655 66.1244 225.49 57.9083 221.489 51.3139C220.22 49.2149 218.531 47.5541 216.828 45.8593C213.436 42.5816 209.673 39.7374 205.715 37.2243C193.807 29.7046 180.25 25.3117 166.453 22.9399C149.816 19.9057 132.906 19.6817 116.137 21.3083C117.787 14.0322 119.417 6.88752 120.92 0.00585938C118.338 7.11156 116.01 14.2952 113.863 21.5421C108.748 22.0876 103.648 22.8035 98.5728 23.6607C99.9149 18.2742 101.189 12.951 102.35 7.76417C100.344 13.1312 98.4752 18.542 96.6987 23.987C92.1405 24.7906 87.6067 25.7013 83.1022 26.7046C72.8486 28.9839 62.7122 31.7063 52.6782 34.8233C40.6824 39.4841 29.1795 45.4015 18.5111 52.6533C12.7328 56.6566 7.26199 61.3515 3.10396 67.0936C-0.551404 71.9492 -2.11311 77.2432 4.94384 79.3958C11.8446 81.2952 19.0138 80.9494 26.0463 81.0225C44.5672 80.3504 63.1026 79.688 81.6429 79.2497C80.6766 83.9398 79.8421 88.659 79.2077 93.4124C78.9929 95.38 78.7684 97.3573 78.8172 99.3395C79.9397 92.5114 81.887 85.8733 83.6927 79.2059C89.5051 79.0744 95.3176 78.9624 101.13 78.8796C100.862 81.0127 100.623 83.1459 100.427 85.284C100.144 87.6752 99.9832 91.2598 99.8661 93.6949C99.5928 103.416 99.5488 113.127 98.8314 122.824C98.5435 125.556 98.5289 128.415 97.6016 131.016C98.0018 130.436 98.1921 129.744 98.4117 129.082C99.7928 124.382 100.383 119.493 101.037 114.656C101.662 109.27 102.199 103.387 102.536 97.9904C102.843 93.8264 103.107 89.7305 103.653 85.6249C103.941 83.3894 104.263 81.1199 104.605 78.8357C109.251 78.7773 113.897 78.7432 118.548 78.7286C117.611 83.5891 117.318 88.1428 119.236 89.3798C121.012 90.6656 123.033 88.8928 124.024 87.5681C126.127 84.7921 127.796 81.7871 129.387 78.7383C134.877 78.7676 140.368 78.8309 145.858 78.9331C145.765 79.5273 145.702 80.1312 145.697 80.7449C145.687 82.2741 147.112 83.5014 148.62 82.8488C149.465 82.4543 149.743 81.9819 150.221 81.4413C150.782 80.6621 151.31 79.8682 151.812 79.0598C159.704 79.2497 167.59 79.5322 175.472 79.9169C176.155 82.8099 177.156 85.5664 178.673 88.0015C180.953 91.5812 184.935 93.1884 189.083 92.0244C191.567 91.3766 193.983 90.5049 196.306 89.4724C200.62 87.5194 204.725 85.0843 208.448 82.1816C212.719 82.5664 216.989 82.9852 221.259 83.4479C248.97 86.2629 276.646 90.8263 304.015 95.8865L304 95.8816ZM205.066 38.213C208.912 40.765 212.518 43.6774 215.735 46.9453C217.272 48.5574 218.892 50.2522 219.985 52.1711C222.206 56.0576 221.791 60.772 220.01 64.7705C217.311 70.6683 212.436 75.9672 206.701 80.1751C197.336 79.3568 187.956 78.6945 178.566 78.1734C177.522 72.6359 177.463 66.4653 177.361 63.3435C177.268 56.4034 177.732 49.4292 177.102 42.455C176.917 40.9841 176.951 39.5426 176.233 38.1302C176.058 37.7941 175.579 37.4143 175.116 37.4289C174.608 37.4386 174.393 37.6139 174.203 37.7259C173.5 38.2276 173.017 38.9484 172.558 39.5718C165.262 50.9341 158.83 62.8418 151.358 74.0678C152.842 70.0449 154.369 65.9831 155.741 61.8483C157.703 55.5316 161.534 44.6368 158.923 38.2325C158.244 36.5279 156.17 34.9402 154.199 35.2226C150.709 35.7584 148.537 39.3526 146.742 41.9046C140.563 51.8545 135.639 62.4522 129.997 72.6797C129.275 73.985 128.548 75.3048 127.806 76.6198C126.093 76.61 124.375 76.6003 122.662 76.5954C124.751 68.8809 127.503 61.2639 130.119 53.7052C132.398 47.3983 134.653 40.3364 136.566 33.8492L137.581 30.5131C137.942 29.3102 137.776 27.9319 138.118 26.7241L137.913 26.8653C134.79 29.0326 132.081 31.6187 129.197 34.0635C122.838 39.4792 116.396 44.7927 109.841 49.9698C111.725 40.8575 113.78 31.7015 115.81 22.7256C146.776 19.2482 179.176 21.2596 205.066 38.2081V38.213ZM175.116 39.2601C175.116 39.2601 175.13 39.2552 175.135 39.2503C175.179 39.2211 175.218 39.2406 175.116 39.2601ZM113.419 23.0129C110.988 31.3167 108.807 39.6935 106.821 48.1142C106.435 49.8139 106.054 51.5185 105.683 53.2231C101.794 56.2329 97.8651 59.1989 93.8828 62.0918C91.5988 63.7623 89.3148 65.4279 87.0015 67.04C90.7399 53.4325 94.6783 39.1529 98.1677 25.2825C103.185 24.4107 108.28 23.6412 113.424 23.0129H113.419ZM81.8333 77.1799C63.2295 77.6571 44.6208 78.8503 26.0268 79.1474C21.3905 79.1913 16.7396 79.1864 12.1618 78.8065C8.93106 78.4315 5.32938 78.2416 2.73793 76.2691C0.307532 74.0434 3.02587 70.3128 4.53389 68.1115C14.1725 55.1907 29.3894 47.3593 43.6448 40.3997C47.8418 38.4565 52.0194 36.5035 56.4947 35.2957C65.3817 32.5878 74.3615 30.1965 83.4243 28.151C87.5872 27.2549 91.8428 26.4075 96.1619 25.6282C93.2532 34.6528 90.5934 43.7504 88.0654 52.8919C86.6404 58.2833 85.2202 63.6844 83.9123 69.1147C80.2765 71.4914 76.6357 73.9022 72.5656 75.3681C68.632 76.6831 68.3148 75.1295 69.1835 71.7106C66.47 75.7139 68.7345 77.9834 72.9511 76.5954C75.7231 75.7529 78.2853 74.3892 80.7938 73.006C81.6527 72.519 82.5019 72.0174 83.3511 71.506C82.9118 73.3908 82.4872 75.2756 82.0822 77.1652C82.0041 77.1652 81.9211 77.1652 81.843 77.1701L81.8333 77.1799ZM84.2441 77.1117C84.3076 76.873 84.371 76.6344 84.4345 76.3957C85.0348 74.1895 85.6497 71.9541 86.2695 69.704C89.2611 67.7949 92.1844 65.7786 95.0638 63.7233C98.4068 61.3515 101.721 58.9359 104.99 56.4667C103.58 63.1779 102.331 69.9427 101.408 76.7367C95.6885 76.8243 89.9639 76.951 84.249 77.1117H84.2441ZM104.922 76.688C106.108 69.0465 107.557 61.1957 109.163 53.2767C113.492 49.9162 117.743 46.4632 121.901 42.8933C124.761 40.4241 127.567 37.8964 130.305 35.2957C132.193 33.484 134.121 31.7063 135.858 29.7387C135.844 29.7728 135.824 29.8021 135.805 29.8313L134.297 32.9921C133.301 35.1009 132.31 37.2146 131.364 39.3477C127.572 47.8853 124.614 56.7394 121.896 65.6763C121.393 67.5611 119.997 72.0271 118.973 76.6003C114.287 76.6003 109.597 76.6344 104.912 76.6928L104.922 76.688ZM122.882 84.4657C122.325 85.1622 121.701 86.034 120.993 86.5697C120.725 84.5047 121.349 82.128 121.779 80.0387C121.886 79.5955 122.008 79.1474 122.12 78.7042C123.619 78.7042 125.112 78.7042 126.605 78.7091C125.439 80.6913 124.214 82.6345 122.882 84.4609V84.4657ZM130.451 76.6441C130.954 75.6652 131.451 74.6912 131.964 73.7171C136.21 65.4718 140.207 57.056 145.194 49.249C146.942 46.6239 151.524 39.5864 154.491 39.0799C154.794 39.2747 154.882 39.4159 155.058 39.8835C155.443 41.1692 155.341 42.5816 155.199 44.0427C153.725 54.2166 149.933 63.8208 147.147 73.7415C146.873 74.7934 146.551 75.8454 146.278 76.9022C141.002 76.7805 135.727 76.6928 130.446 76.6441H130.451ZM147.176 79.6345C147.176 79.6345 147.166 79.6491 147.156 79.6539C147.132 79.6783 147.088 79.6832 147.176 79.6345ZM152.969 77.0776C154.179 74.9541 155.282 72.7723 156.444 70.6196C159.567 64.639 162.993 57.9911 166.258 52.137C167.4 50.1159 168.537 48.0947 169.752 46.1223C171.226 43.8527 172.68 41.4468 174.647 39.6302C174.828 41.9679 174.164 47.335 174.081 49.3951C173.754 54.0315 173.754 58.7119 173.827 63.4019C174.008 67.9751 174.145 73.1132 175.052 77.9834C167.698 77.5987 160.333 77.3016 152.974 77.0776H152.969ZM188.722 88.8782C183.193 90.573 180.411 85.9804 178.981 80.0825C187.439 80.5306 195.891 81.1053 204.334 81.8163C199.356 85.0843 193.895 87.5389 188.717 88.8782H188.722Z" fill="white"/>
</svg>
